<svg width="82" height="82" viewBox="0 0 82 82" fill="none" xmlns="http://www.w3.org/2000/svg">
<rect x="0.499023" y="0.500977" width="81.4992" height="81.4992" fill="url(#paint0_radial)"/>
<path d="M33.7772 41.2504C33.7772 37.1231 37.1221 33.7764 41.2495 33.7764C45.3768 33.7764 48.7235 37.1231 48.7235 41.2504C48.7235 45.3777 45.3768 48.7245 41.2495 48.7245C37.1221 48.7245 33.7772 45.3777 33.7772 41.2504V41.2504ZM29.7369 41.2504C29.7369 47.6088 34.891 52.763 41.2495 52.763C47.6079 52.763 52.762 47.6088 52.762 41.2504C52.762 34.892 47.6079 29.7378 41.2495 29.7378C34.891 29.7378 29.7371 34.8917 29.7371 41.2504H29.7369ZM50.5275 29.2814C50.5273 29.8135 50.6849 30.3337 50.9804 30.7763C51.2758 31.2188 51.6959 31.5638 52.1874 31.7677C52.6789 31.9715 53.2199 32.025 53.7418 31.9214C54.2637 31.8178 54.7432 31.5617 55.1197 31.1856C55.4961 30.8095 55.7525 30.3302 55.8565 29.8084C55.9605 29.2865 55.9075 28.7455 55.704 28.2539C55.5006 27.7622 55.1559 27.3418 54.7136 27.046C54.2713 26.7502 53.7512 26.5922 53.2191 26.592H53.218C52.5047 26.5923 51.8208 26.8758 51.3163 27.38C50.8118 27.8843 50.5282 28.5681 50.5275 29.2814V29.2814ZM32.1916 59.5002C30.0057 59.4007 28.8176 59.0366 28.0281 58.729C26.9813 58.3215 26.2345 57.8361 25.4492 57.0519C24.664 56.2678 24.1779 55.5216 23.7722 54.4748C23.4644 53.6857 23.1003 52.4972 23.0009 50.3113C22.8922 47.948 22.8705 47.2381 22.8705 41.2508C22.8705 35.2635 22.894 34.5555 23.0009 32.1903C23.1004 30.0044 23.4672 28.8183 23.7722 28.0267C24.1797 26.98 24.665 26.2331 25.4492 25.4478C26.2334 24.6626 26.9795 24.1765 28.0281 23.7708C28.8173 23.463 30.0057 23.0989 32.1916 22.9995C34.5549 22.8909 35.2648 22.8691 41.2495 22.8691C47.2341 22.8691 47.9447 22.8923 50.31 22.9999C52.4959 23.0995 53.682 23.4662 54.4735 23.7712C55.5203 24.1769 56.2671 24.664 57.0524 25.4482C57.8376 26.2324 58.3219 26.9803 58.7294 28.0271C59.0372 28.8163 59.4013 30.0047 59.5007 32.1906C59.6094 34.5559 59.6311 35.2638 59.6311 41.2511C59.6311 47.2385 59.6094 47.9464 59.5007 50.3117C59.4012 52.4976 59.0353 53.6857 58.7294 54.4752C58.3219 55.522 57.8366 56.2688 57.0524 57.0523C56.2682 57.8357 55.5203 58.3218 54.4735 58.7293C53.6843 59.0371 52.4959 59.4012 50.31 59.5006C47.9467 59.6093 47.2368 59.631 41.2495 59.631C35.2621 59.631 34.5542 59.6093 32.1916 59.5006V59.5002ZM32.006 18.9659C29.6192 19.0745 27.9883 19.453 26.5639 20.0072C25.0898 20.5796 23.8401 21.3474 22.5923 22.5933C21.3445 23.8391 20.5786 25.0889 20.0063 26.5649C19.452 27.9901 19.0736 29.6202 18.9649 32.007C18.8544 34.3975 18.8291 35.1618 18.8291 41.2504C18.8291 47.3391 18.8544 48.1033 18.9649 50.4939C19.0736 52.8809 19.452 54.5107 20.0063 55.9359C20.5786 57.4101 21.3447 58.6623 22.5923 59.9076C23.84 61.1529 25.088 61.9197 26.5639 62.4936C27.991 63.0478 29.6192 63.4263 32.006 63.535C34.3978 63.6437 35.1608 63.6708 41.2495 63.6708C47.3381 63.6708 48.1024 63.6455 50.4929 63.535C52.8799 63.4263 54.5098 63.0478 55.935 62.4936C57.4092 61.9197 58.6588 61.1534 59.9066 59.9076C61.1544 58.6617 61.9187 57.4101 62.4927 55.9359C63.0469 54.5107 63.4271 52.8807 63.534 50.4939C63.6427 48.1016 63.668 47.3391 63.668 41.2504C63.668 35.1618 63.6427 34.3975 63.534 32.007C63.4253 29.62 63.0469 27.9892 62.4927 26.5649C61.9187 25.0907 61.1525 23.8411 59.9066 22.5933C58.6607 21.3455 57.4092 20.5796 55.9368 20.0072C54.5098 19.453 52.8797 19.0728 50.4947 18.9659C48.1038 18.8566 47.3399 18.8301 41.2521 18.8301C35.1644 18.8301 34.3987 18.8554 32.0069 18.9659" fill="white"/>
<defs>
<radialGradient id="paint0_radial" cx="0" cy="0" r="1" gradientUnits="userSpaceOnUse" gradientTransform="translate(5.77357 80.2148) scale(103.474)">
<stop offset="0.09" stop-color="#FF881B"/>
<stop offset="0.78" stop-color="#EE2584"/>
</radialGradient>
</defs>
</svg>
